<svg width="138" height="134" viewBox="0 0 138 134" fill="none" xmlns="http://www.w3.org/2000/svg">
<g clip-path="url(#clip0_23_44)">
<path d="M91.8735 117.368C98.1026 120.343 104.995 122.12 112.273 122.462C106.237 127.364 99.3441 131.26 91.8735 133.893C86.415 131.988 81.2777 129.398 76.5684 126.23C74.8131 125.045 73.1149 123.789 71.4738 122.462C67.7278 119.444 64.3029 115.998 61.2633 112.252V106.451V90.6105C62.8901 91.1885 64.5812 91.5952 66.3364 91.7665C67.1927 91.8735 68.0489 91.9163 68.9051 91.9163C71.6022 91.9163 74.1709 91.4668 76.5684 90.6105C78.3879 89.9898 80.0789 89.1121 81.663 88.0419C87.8064 83.9319 91.8735 76.9323 91.8735 68.9693C91.8735 61.0064 87.8064 54.0067 81.663 49.8968C80.0789 48.8265 78.3879 47.9703 76.5684 47.3281C74.1709 46.4719 71.6022 46.0224 68.9051 46.0224C68.0489 46.0224 67.1927 46.0652 66.3364 46.1722C64.5812 46.3434 62.8901 46.7502 61.2633 47.3281C52.3585 50.4748 45.9581 58.9728 45.9581 68.9693V133.893C40.5211 131.988 35.3623 129.398 30.653 126.23C24.8735 122.355 19.7147 117.625 15.3479 112.252C5.80095 100.414 0.064209 85.3661 0.064209 68.9693C0.064209 54.8201 4.34536 41.6556 11.6661 30.7173C12.822 28.9834 14.0636 27.2923 15.3479 25.6869C19.7147 20.3141 24.8735 15.5834 30.653 11.7089C35.3623 8.54089 40.5211 5.9508 45.9581 4.04568C50.8173 2.31182 55.9546 1.1131 61.2633 0.53514C63.7677 0.256865 66.3364 0.107025 68.9051 0.107025C71.4952 0.107025 74.0639 0.256865 76.5684 0.53514C81.877 1.1131 86.993 2.31182 91.8735 4.04568C99.3441 6.67859 106.237 10.5744 112.273 15.4764C117.646 19.8217 122.334 24.9591 126.166 30.7173H106.387C102.17 26.5645 97.2678 23.1396 91.8735 20.5709C87.1 18.3019 81.9626 16.7179 76.5684 15.9473C74.8773 15.7118 73.1863 15.5406 71.4738 15.4764C70.6176 15.4335 69.7614 15.4121 68.9051 15.4121C66.315 15.4121 63.7677 15.6048 61.2633 15.9473C55.869 16.7179 50.7102 18.3019 45.9581 20.5709C40.5639 23.1396 35.662 26.5645 31.445 30.7173C31.1882 30.9527 30.9099 31.2096 30.653 31.4879C21.2131 41.1419 15.3479 54.392 15.3479 68.9693C15.3479 83.5466 21.2131 96.7968 30.653 106.451V68.9693C30.653 56.447 36.6681 45.3374 45.9581 38.3591C49.0406 36.0473 52.4655 34.185 56.1687 32.9006C57.8241 32.3013 59.5223 31.8304 61.2633 31.4879C63.7463 30.9741 66.2936 30.7173 68.9051 30.7173C71.538 30.7173 74.0853 30.9741 76.5684 31.4879C82.2195 32.6224 87.4211 35.0198 91.8735 38.3591C96.0048 41.4629 99.4939 45.3802 102.084 49.8968C105.316 55.5051 107.179 62.0125 107.179 68.9693C107.179 75.9262 105.316 82.4335 102.084 88.0419C99.4939 92.5585 96.0048 96.4757 91.8735 99.5796C87.4211 102.919 82.2195 105.316 76.5684 106.451C80.9566 110.946 86.1368 114.649 91.8735 117.368V117.368Z" fill="#000"/>
<path d="M137.767 68.9693C137.767 82.1981 134.043 94.5492 127.557 105.038C123.575 106.451 119.294 107.221 114.82 107.221C112.209 107.221 109.64 106.965 107.179 106.451C111.353 102.212 114.82 97.2249 117.389 91.7665C120.643 84.8524 122.462 77.1249 122.462 68.9693C122.462 60.8137 120.643 53.0863 117.389 46.1722C117.368 46.1294 117.346 46.0652 117.325 46.0224H133.85C136.397 53.1933 137.767 60.9208 137.767 68.9693V68.9693Z" fill="red"/>
</g>
<defs>
<clipPath id="clip0_23_44">
<rect width="137.853" height="134" fill="white"/>
</clipPath>
</defs>
</svg>
