<svg width="190" height="42" viewBox="0 0 286 42" fill="none" xmlns="http://www.w3.org/2000/svg">
<path d="M281.598 32.1047C280.326 32.1047 279.25 31.6791 278.369 30.8279C277.489 29.9767 277.049 28.9363 277.049 27.7068C277.049 26.4773 277.489 25.4369 278.369 24.5857C279.25 23.7345 280.326 23.3089 281.598 23.3089C282.82 23.3089 283.848 23.7345 284.679 24.5857C285.56 25.4369 286 26.4773 286 27.7068C286 28.9363 285.56 29.9767 284.679 30.8279C283.848 31.6791 282.82 32.1047 281.598 32.1047Z" fill="#FF1212"/>
<path d="M0 32.1047V0.87958H13.6063C15.0087 0.87958 16.2917 1.17277 17.4554 1.75916C18.6191 2.31623 19.6336 3.07853 20.4989 4.04607C21.3642 4.98429 22.0356 6.05445 22.513 7.25655C22.9904 8.42932 23.2291 9.63141 23.2291 10.8628C23.2291 12.2995 22.9456 13.6628 22.3787 14.9529C21.8416 16.2429 21.0658 17.3424 20.0513 18.2513C19.0667 19.1602 17.903 19.7906 16.5603 20.1424L24.2585 32.1047H19.6933L12.4426 20.8901H4.02817V32.1047H0ZM4.02817 17.3717H13.651C14.755 17.3717 15.7099 17.0785 16.5155 16.4921C17.351 15.8764 17.9925 15.0702 18.4401 14.0733C18.9175 13.0764 19.1562 12.0063 19.1562 10.8628C19.1562 9.69005 18.8876 8.61989 18.3505 7.65235C17.8135 6.6555 17.1123 5.86387 16.2469 5.27749C15.3816 4.6911 14.4268 4.3979 13.3825 4.3979H4.02817V17.3717Z" fill="black"/>
<path d="M26.1569 25.4639C26.1569 23.9979 26.5746 22.7372 27.4101 21.6817C28.2754 20.5969 29.454 19.7613 30.9459 19.1749C32.4378 18.5885 34.1685 18.2953 36.1378 18.2953C37.1821 18.2953 38.2861 18.3832 39.4498 18.5592C40.6135 18.7058 41.6429 18.9403 42.5381 19.2628V17.5916C42.5381 15.8325 42.001 14.4545 40.9268 13.4576C39.8526 12.4314 38.3309 11.9183 36.3616 11.9183C35.0785 11.9183 33.8402 12.1529 32.6467 12.622C31.483 13.0618 30.2447 13.7068 28.9318 14.5571L27.4996 11.8304C29.0213 10.8042 30.5431 10.0419 32.0649 9.54346C33.5866 9.01571 35.168 8.75183 36.8091 8.75183C39.793 8.75183 42.1502 9.57277 43.8808 11.2147C45.6114 12.8272 46.4767 15.0848 46.4767 17.9874V27.7068C46.4767 28.1759 46.5663 28.5277 46.7453 28.7623C46.9542 28.9675 47.2824 29.0848 47.73 29.1141V32.1047C47.3421 32.1634 46.9989 32.2073 46.7005 32.2367C46.432 32.266 46.2082 32.2806 46.0292 32.2806C45.1042 32.2806 44.403 32.0314 43.9256 31.533C43.478 31.0346 43.2244 30.5068 43.1647 29.9497L43.0752 28.4984C42.0607 29.7885 40.7329 30.7853 39.0918 31.489C37.4507 32.1927 35.8245 32.5445 34.2132 32.5445C32.6616 32.5445 31.2741 32.2366 30.0508 31.6209C28.8274 30.9759 27.8726 30.1257 27.1863 29.0702C26.5 27.9853 26.1569 26.7832 26.1569 25.4639ZM41.3744 27.0911C41.7325 26.6806 42.0159 26.2702 42.2248 25.8597C42.4337 25.4199 42.5381 25.0534 42.5381 24.7602V21.9016C41.6131 21.5497 40.6434 21.2859 39.6289 21.1099C38.6144 20.9047 37.6148 20.8021 36.6301 20.8021C34.631 20.8021 33.0048 21.1979 31.7516 21.9895C30.5282 22.7518 29.9165 23.8073 29.9165 25.156C29.9165 25.889 30.1104 26.6073 30.4983 27.311C30.9161 27.9853 31.5128 28.5424 32.2886 28.9822C33.0943 29.422 34.0789 29.6419 35.2426 29.6419C36.466 29.6419 37.6297 29.4073 38.7337 28.9382C39.8377 28.4398 40.718 27.8241 41.3744 27.0911Z" fill="black"/>
<path d="M87.5511 32.1047H83.6125V19.2628C83.6125 16.8586 83.2097 15.0848 82.404 13.9414C81.6282 12.7979 80.4645 12.2262 78.9129 12.2262C77.3315 12.2262 75.8993 12.7979 74.6162 13.9414C73.3332 15.0555 72.4231 16.5068 71.886 18.2953V32.1047H67.9474V19.2628C67.9474 16.8293 67.5595 15.0555 66.7837 13.9414C66.0079 12.7979 64.8442 12.2262 63.2926 12.2262C61.741 12.2262 60.3088 12.7832 58.9959 13.8974C57.7128 14.9822 56.8028 16.4335 56.2657 18.2513V32.1047H52.327V9.14764H55.9076V14.0733C56.8625 12.3728 58.1007 11.0681 59.6225 10.1592C61.1442 9.22094 62.86 8.75183 64.7696 8.75183C66.7091 8.75183 68.2607 9.27958 69.4244 10.3351C70.5881 11.3613 71.3042 12.6953 71.5727 14.3372C72.6171 12.5194 73.8852 11.1414 75.3771 10.2031C76.869 9.2356 78.5698 8.75183 80.4795 8.75183C81.8222 8.75183 82.9411 9.00105 83.8363 9.49948C84.7613 9.96859 85.4923 10.6429 86.0294 11.5225C86.5665 12.3728 86.9544 13.3843 87.1931 14.5571C87.4318 15.7298 87.5511 17.0052 87.5511 18.3832V32.1047Z" fill="black"/>
<path d="M104.727 32.1047V0.87958H118.333C119.736 0.87958 121.019 1.17277 122.183 1.75916C123.346 2.31623 124.361 3.07853 125.226 4.04607C126.091 4.98429 126.763 6.05445 127.24 7.25655C127.718 8.42932 127.956 9.63141 127.956 10.8628C127.956 12.2995 127.673 13.6628 127.106 14.9529C126.569 16.2429 125.793 17.3424 124.778 18.2513C123.794 19.1602 122.63 19.7906 121.287 20.1424L128.986 32.1047H124.42L117.17 20.8901H108.755V32.1047H104.727ZM108.755 17.3717H118.378C119.482 17.3717 120.437 17.0785 121.243 16.4921C122.078 15.8764 122.72 15.0702 123.167 14.0733C123.645 13.0764 123.883 12.0063 123.883 10.8628C123.883 9.69005 123.615 8.61989 123.078 7.65235C122.541 6.6555 121.839 5.86387 120.974 5.27749C120.109 4.6911 119.154 4.3979 118.11 4.3979H108.755V17.3717Z" fill="black"/>
<path d="M130.884 25.4639C130.884 23.9979 131.302 22.7372 132.137 21.6817C133.003 20.5969 134.181 19.7613 135.673 19.1749C137.165 18.5885 138.896 18.2953 140.865 18.2953C141.909 18.2953 143.013 18.3832 144.177 18.5592C145.341 18.7058 146.37 18.9403 147.265 19.2628V17.5916C147.265 15.8325 146.728 14.4545 145.654 13.4576C144.58 12.4314 143.058 11.9183 141.089 11.9183C139.806 11.9183 138.567 12.1529 137.374 12.622C136.21 13.0618 134.972 13.7068 133.659 14.5571L132.227 11.8304C133.749 10.8042 135.27 10.0419 136.792 9.54346C138.314 9.01571 139.895 8.75183 141.536 8.75183C144.52 8.75183 146.877 9.57277 148.608 11.2147C150.339 12.8272 151.204 15.0848 151.204 17.9874V27.7068C151.204 28.1759 151.293 28.5277 151.472 28.7623C151.681 28.9675 152.01 29.0848 152.457 29.1141V32.1047C152.069 32.1634 151.726 32.2073 151.428 32.2367C151.159 32.266 150.935 32.2806 150.756 32.2806C149.831 32.2806 149.13 32.0314 148.653 31.533C148.205 31.0346 147.952 30.5068 147.892 29.9497L147.802 28.4984C146.788 29.7885 145.46 30.7853 143.819 31.489C142.178 32.1927 140.552 32.5445 138.94 32.5445C137.389 32.5445 136.001 32.2366 134.778 31.6209C133.555 30.9759 132.6 30.1257 131.913 29.0702C131.227 27.9853 130.884 26.7832 130.884 25.4639ZM146.102 27.0911C146.46 26.6806 146.743 26.2702 146.952 25.8597C147.161 25.4199 147.265 25.0534 147.265 24.7602V21.9016C146.34 21.5497 145.37 21.2859 144.356 21.1099C143.342 20.9047 142.342 20.8021 141.357 20.8021C139.358 20.8021 137.732 21.1979 136.479 21.9895C135.255 22.7518 134.644 23.8073 134.644 25.156C134.644 25.889 134.838 26.6073 135.225 27.311C135.643 27.9853 136.24 28.5424 137.016 28.9822C137.821 29.422 138.806 29.6419 139.97 29.6419C141.193 29.6419 142.357 29.4073 143.461 28.9382C144.565 28.4398 145.445 27.8241 146.102 27.0911Z" fill="black"/>
<path d="M163.025 32.1047L153.849 9.14764H157.967L165.307 28.4105L172.648 9.14764H176.497L167.321 32.1047H163.025Z" fill="black"/>
<path d="M177.587 25.4639C177.587 23.9979 178.005 22.7372 178.841 21.6817C179.706 20.5969 180.884 19.7613 182.376 19.1749C183.868 18.5885 185.599 18.2953 187.568 18.2953C188.613 18.2953 189.717 18.3832 190.88 18.5592C192.044 18.7058 193.073 18.9403 193.969 19.2628V17.5916C193.969 15.8325 193.431 14.4545 192.357 13.4576C191.283 12.4314 189.761 11.9183 187.792 11.9183C186.509 11.9183 185.271 12.1529 184.077 12.622C182.913 13.0618 181.675 13.7068 180.362 14.5571L178.93 11.8304C180.452 10.8042 181.974 10.0419 183.495 9.54346C185.017 9.01571 186.599 8.75183 188.24 8.75183C191.223 8.75183 193.581 9.57277 195.311 11.2147C197.042 12.8272 197.907 15.0848 197.907 17.9874V27.7068C197.907 28.1759 197.997 28.5277 198.176 28.7623C198.385 28.9675 198.713 29.0848 199.16 29.1141V32.1047C198.773 32.1634 198.429 32.2073 198.131 32.2367C197.862 32.266 197.639 32.2806 197.46 32.2806C196.535 32.2806 195.833 32.0314 195.356 31.533C194.908 31.0346 194.655 30.5068 194.595 29.9497L194.506 28.4984C193.491 29.7885 192.163 30.7853 190.522 31.489C188.881 32.1927 187.255 32.5445 185.644 32.5445C184.092 32.5445 182.705 32.2366 181.481 31.6209C180.258 30.9759 179.303 30.1257 178.617 29.0702C177.93 27.9853 177.587 26.7832 177.587 25.4639ZM192.805 27.0911C193.163 26.6806 193.446 26.2702 193.655 25.8597C193.864 25.4199 193.969 25.0534 193.969 24.7602V21.9016C193.044 21.5497 192.074 21.2859 191.059 21.1099C190.045 20.9047 189.045 20.8021 188.061 20.8021C186.061 20.8021 184.435 21.1979 183.182 21.9895C181.959 22.7518 181.347 23.8073 181.347 25.156C181.347 25.889 181.541 26.6073 181.929 27.311C182.347 27.9853 182.943 28.5424 183.719 28.9822C184.525 29.422 185.509 29.6419 186.673 29.6419C187.896 29.6419 189.06 29.4073 190.164 28.9382C191.268 28.4398 192.148 27.8241 192.805 27.0911Z" fill="black"/>
<path d="M203.847 0H207.786V26.1675C207.786 27.4283 207.965 28.2052 208.323 28.4984C208.681 28.7916 209.113 28.9382 209.621 28.9382C210.247 28.9382 210.844 28.8796 211.411 28.7623C211.978 28.6157 212.455 28.4691 212.843 28.3225L213.47 31.489C212.813 31.7529 212.038 31.9728 211.142 32.1487C210.247 32.3246 209.457 32.4126 208.77 32.4126C207.249 32.4126 206.04 31.9874 205.145 31.1372C204.28 30.2869 203.847 29.0995 203.847 27.5749V0Z" fill="black"/>
<path d="M216.117 32.1047V9.14764H220.055V32.1047H216.117ZM216.117 4.8377V0H220.055V4.8377H216.117Z" fill="black"/>
<path d="M227.058 38.3497C227.446 38.3791 227.834 38.4084 228.222 38.4377C228.61 38.4963 228.908 38.5257 229.117 38.5257C229.595 38.5257 230.012 38.3644 230.37 38.0419C230.728 37.7194 231.116 37.089 231.534 36.1508C231.982 35.2419 232.549 33.8932 233.235 32.1047L223.343 9.14764H227.506L235.383 28.1906L242.5 9.14764H246.394L235.025 38.1298C234.757 38.8042 234.354 39.4346 233.817 40.0209C233.309 40.6367 232.653 41.1204 231.847 41.4723C231.042 41.8241 230.072 42 228.938 42C228.67 42 228.386 41.9853 228.088 41.956C227.819 41.9267 227.476 41.8681 227.058 41.7801V38.3497Z" fill="black"/>
<path d="M247.479 25.4639C247.479 23.9979 247.897 22.7372 248.732 21.6817C249.597 20.5969 250.776 19.7613 252.268 19.1749C253.76 18.5885 255.49 18.2953 257.46 18.2953C258.504 18.2953 259.608 18.3832 260.772 18.5592C261.936 18.7058 262.965 18.9403 263.86 19.2628V17.5916C263.86 15.8325 263.323 14.4545 262.249 13.4576C261.175 12.4314 259.653 11.9183 257.684 11.9183C256.401 11.9183 255.162 12.1529 253.969 12.622C252.805 13.0618 251.567 13.7068 250.254 14.5571L248.822 11.8304C250.343 10.8042 251.865 10.0419 253.387 9.54346C254.909 9.01571 256.49 8.75183 258.131 8.75183C261.115 8.75183 263.472 9.57277 265.203 11.2147C266.933 12.8272 267.799 15.0848 267.799 17.9874V27.7068C267.799 28.1759 267.888 28.5277 268.067 28.7623C268.276 28.9675 268.604 29.0848 269.052 29.1141V32.1047C268.664 32.1634 268.321 32.2073 268.023 32.2367C267.754 32.266 267.53 32.2806 267.351 32.2806C266.426 32.2806 265.725 32.0314 265.248 31.533C264.8 31.0346 264.546 30.5068 264.487 29.9497L264.397 28.4984C263.383 29.7885 262.055 30.7853 260.414 31.489C258.773 32.1927 257.146 32.5445 255.535 32.5445C253.984 32.5445 252.596 32.2366 251.373 31.6209C250.149 30.9759 249.195 30.1257 248.508 29.0702C247.822 27.9853 247.479 26.7832 247.479 25.4639ZM262.696 27.0911C263.054 26.6806 263.338 26.2702 263.547 25.8597C263.756 25.4199 263.86 25.0534 263.86 24.7602V21.9016C262.935 21.5497 261.965 21.2859 260.951 21.1099C259.936 20.9047 258.937 20.8021 257.952 20.8021C255.953 20.8021 254.327 21.1979 253.074 21.9895C251.85 22.7518 251.239 23.8073 251.239 25.156C251.239 25.889 251.432 26.6073 251.82 27.311C252.238 27.9853 252.835 28.5424 253.611 28.9822C254.416 29.422 255.401 29.6419 256.565 29.6419C257.788 29.6419 258.952 29.4073 260.056 28.9382C261.16 28.4398 262.04 27.8241 262.696 27.0911Z" fill="black"/>
</svg>
